<?xml version="1.0" standalone="no"?>
<!DOCTYPE svg PUBLIC "-//W3C//DTD SVG 20010904//EN"
 "http://www.w3.org/TR/2001/REC-SVG-20010904/DTD/svg10.dtd">
<svg version="1.0" xmlns="http://www.w3.org/2000/svg"
 width="2615.000000pt" height="2615.000000pt" viewBox="0 0 2615.000000 2615.000000"
 preserveAspectRatio="xMidYMid meet">
<metadata>
Created by potrace 1.14, written by Peter Selinger 2001-2017
</metadata>
<g transform="translate(0.000000,2615.000000) scale(0.100000,-0.100000)"
fill="#000000" stroke="none">
<path d="M8017 26144 c-1 -1 -54 -4 -117 -8 -63 -3 -128 -8 -145 -11 -16 -2
-50 -7 -75 -10 -99 -13 -128 -18 -195 -32 -38 -8 -88 -19 -110 -24 -69 -15
-77 -17 -185 -49 -413 -124 -847 -366 -1164 -649 -43 -39 -226 -221 -268 -268
-141 -156 -322 -421 -426 -623 -122 -238 -239 -560 -268 -740 -3 -19 -8 -38
-10 -41 -3 -5 -15 -74 -29 -174 -4 -22 -8 -51 -10 -64 -2 -14 -8 -63 -12 -110
-4 -47 -8 -5143 -8 -11323 0 -9982 -2 -11238 -15 -11239 -8 -1 -436 -3 -950
-4 -514 -1 -940 -3 -946 -4 -16 -2 -16 -723 0 -733 8 -6 7 -8 -1 -8 -7 0 -13
-7 -13 -15 0 -13 231 -15 2015 -15 l2015 0 0 5335 0 5335 995 0 995 0 1 -32
c0 -18 0 -2419 1 -5336 l0 -5302 3968 0 c3518 0 3969 2 3974 15 3 8 1 15 -5
15 -6 0 -7 5 -3 11 3 6 7 2815 8 6242 l1 6232 530 -1 c554 0 620 -4 722 -35
35 -11 65 -20 68 -20 18 -1 173 -86 230 -127 234 -166 399 -444 430 -724 4
-35 8 -2661 8 -5836 l0 -5772 2023 0 2024 0 0 388 0 387 -966 0 c-639 0 -968
3 -970 10 -2 5 -6 2480 -8 5500 -2 3020 -6 5506 -9 5525 -3 19 -8 52 -11 74
-3 21 -8 57 -11 80 -47 330 -176 700 -354 1021 -77 138 -280 415 -382 523
l-41 42 64 68 c195 204 372 476 503 772 43 95 138 366 149 422 2 13 12 57 21
98 9 41 18 84 21 95 7 33 13 67 20 120 3 28 8 59 10 70 16 84 19 616 19 4000
0 3401 -3 3905 -20 3997 -3 13 -8 46 -11 73 -7 68 -41 233 -66 325 -21 79 -97
314 -119 365 -7 17 -13 32 -14 35 -17 51 -120 258 -176 356 -88 154 -194 304
-329 469 -59 72 -313 317 -403 388 -206 165 -482 331 -707 426 -41 18 -84 36
-95 41 -104 47 -423 137 -580 164 -61 10 -162 25 -210 30 -27 4 -75 9 -105 12
-65 8 -5279 12 -5281 4 -4 -17 -3 -723 1 -729 3 -4 435 -7 960 -6 l955 0 0
-12185 0 -12185 -1862 0 c-1235 0 -1863 3 -1864 10 0 5 -2 5084 -3 11285 -2
6201 -5 11286 -9 11300 -3 14 -8 48 -11 75 -31 276 -104 554 -213 820 -29 70
-140 292 -175 350 -13 22 -37 62 -53 89 -45 73 -188 270 -258 353 -95 112
-321 329 -437 419 -352 273 -714 454 -1132 563 -103 27 -252 59 -303 66 -11 1
-47 6 -80 10 -33 3 -71 8 -84 10 -60 10 -415 25 -424 19z m193 -2079 c213 -18
472 -148 614 -306 129 -145 228 -342 251 -501 3 -23 9 -56 11 -73 4 -22 8
-10353 5 -10432 -1 -10 -207 -13 -996 -13 l-995 0 0 5203 c0 4394 2 5215 14
5287 37 228 155 435 337 595 45 39 170 125 182 125 6 0 18 6 26 13 42 35 230
93 335 103 39 3 72 7 73 8 3 3 45 0 143 -9z m9955 -258 c11 -3 36 -9 55 -12
54 -9 175 -52 238 -84 299 -153 523 -477 558 -806 3 -33 6 -1714 6 -3735 0
-2718 -3 -3693 -11 -3745 -15 -88 -47 -198 -72 -244 -10 -20 -19 -40 -19 -44
0 -19 -110 -176 -164 -234 -137 -148 -363 -275 -534 -299 -15 -2 -47 -6 -72
-10 -48 -7 -1087 -13 -1106 -6 -9 2 -12 1155 -12 4610 0 2534 1 4609 3 4612 5
8 1106 5 1130 -3z"/>
</g>
</svg>
